<svg width="314" height="301" viewBox="0 0 314 301" fill="none" xmlns="http://www.w3.org/2000/svg">
<path d="M13.871 13.607L16.018 34.625L43.816 32.252L45.285 73.723L2.345 74.401L3.023 67.96L29.578 62.197L30.934 46.49L3.701 48.75L0.989 0.159999L39.522 0.837997L38.844 10.895L13.871 13.607ZM72.4129 13.833L55.0109 15.189L57.1579 0.498995L98.7419 0.837997V11.46L83.7129 12.929L85.1819 74.062H67.5539L72.4129 13.833ZM148.043 2.19399L151.546 72.932L145.331 74.401L137.76 51.801L117.194 53.835L112.448 72.932L107.702 72.367L102.956 0.159999L148.043 2.19399ZM117.194 40.049L135.726 40.84L129.511 15.076L122.505 15.754L117.194 40.049ZM213.586 2.985L198.105 42.761L209.405 71.576L205.224 73.61L177.652 49.88L171.098 72.593L163.188 72.141L159.798 0.159999L213.586 2.985ZM186.24 33.947L195.845 13.833L172.793 15.867L176.183 34.512L186.24 33.947ZM234.299 13.833L216.897 15.189L219.044 0.498995L260.628 0.837997V11.46L245.599 12.929L247.068 74.062H229.44L234.299 13.833ZM309.929 2.19399L313.432 72.932L307.217 74.401L299.646 51.801L279.08 53.835L274.334 72.932L269.588 72.367L264.842 0.159999L309.929 2.19399ZM279.08 40.049L297.612 40.84L291.397 15.076L284.391 15.754L279.08 40.049ZM90.3014 186.949L72.4474 144.687L69.6224 187.627H63.0684L55.9494 113.16H74.5944L94.5954 160.507L103.296 114.516L121.037 113.16L127.591 184.802H118.777L110.754 137.455L101.714 185.48L90.3014 186.949ZM181.169 123.782L156.083 125.477L153.371 144.8L181.169 146.834V154.631L155.631 158.021L158.117 175.423L182.073 175.988L182.638 184.576L144.331 187.401L140.037 113.16L182.864 113.951L181.169 123.782ZM234.624 113.612L238.692 187.288L194.848 185.254L192.023 113.273L200.837 113.16L208.634 169.547L222.081 171.92L224.115 113.612H234.624ZM74.3472 230.68L72.7652 240.511L41.6902 242.206L46.3232 286.163L73.2172 285.711V294.864L35.9272 300.401L27.6782 226.16L74.3472 230.68ZM127.694 226.612L131.762 300.288L87.9178 298.254L85.0928 226.273L93.9068 226.16L101.704 282.547L115.151 284.92L117.185 226.612H127.694ZM178.693 299.949L160.839 257.687L158.014 300.627H151.46L144.341 226.16H162.986L182.987 273.507L191.688 227.516L209.429 226.16L215.983 297.802H207.169L199.146 250.455L190.106 298.48L178.693 299.949ZM268.205 236.669L243.119 238.364L240.407 257.8L268.205 259.834V267.631L242.667 271.021L245.153 288.423L269.109 288.988L269.674 297.576L231.367 300.401L227.073 226.047L269.9 226.838L268.205 236.669ZM228.542 216.894L248.769 200.622L267.753 217.12L265.38 222.77L248.543 214.747L230.35 220.849L228.542 216.894Z" fill="#502500"/>
</svg>
