<svg id="Layer_1" data-name="Layer 1" xmlns="http://www.w3.org/2000/svg" width="750" height="403.91" viewBox="0 0 750 403.91"><defs><style>.cls-1{fill:#ea1d2c;}</style></defs><title>ifood-logo</title><polygon class="cls-1" points="0 231.65 57.09 231.65 89.04 71.35 31.95 71.35 0 231.65"/><polygon class="cls-1" points="37 46.18 94.07 46.18 103.27 0 46.14 0 37 46.18"/><path class="cls-1" d="M79.68,449.82h57.09l34.64-173.48h41.65l6.56-31.95h-42L179,237c2.69-13.67,7.05-29.56,28.58-29.56,12.75,0,25,1.4,36.84,6.49L251,180.16A121.6,121.6,0,0,0,209.81,173c-45.84,0-77.47,27.83-89,71.35H100.94l-6.19,31.95h19.53Z" transform="translate(0 -173.04)"/><path class="cls-1" d="M260.52,408.26c67.42,0,114.19-62.72,114.19-113.89,0-37.26-34.58-53.55-67.45-53.55-74,0-114.22,67.45-114.22,113.89,0,37.27,34.93,53.55,67.48,53.55" transform="translate(0 -173.04)"/><path class="cls-1" d="M440.62,408.26c67.41,0,114.18-62.72,114.18-113.89,0-37.26-34.65-53.55-67.48-53.55-73.94,0-114.22,67.45-114.22,113.89,0,37.27,35,53.55,67.52,53.55" transform="translate(0 -173.04)"/><path class="cls-1" d="M647.62,404.69h56.76L750,176.62H692.87l-13.6,67.77a115.93,115.93,0,0,0-23.07-2.68c-55.94,0-106.78,72.46-106.78,124.24,0,21.3,13.6,42.31,36.68,42.31,32.8,0,55.51-16.35,65-31.68h3.55Z" transform="translate(0 -173.04)"/><path class="cls-1" d="M471.75,525.49c-41.75,36.22-97.57,54.81-158.23,51C237,571.67,184,511.34,173.34,450.15H177c17.2,39.1,59.09,75.15,111.66,81.08,51.32,5.77,114.22-17.86,148.72-51.58l-38.7-29.83,115,.33-24.74,124Z" transform="translate(0 -173.04)"/></svg>