<svg width="818" height="101" viewBox="0 0 818 101" fill="none" xmlns="http://www.w3.org/2000/svg">
<path d="M13.871 39.607L16.018 60.625L43.816 58.252L45.285 99.723L2.345 100.401L3.023 93.96L29.578 88.197L30.934 72.49L3.701 74.75L0.989 26.16L39.522 26.838L38.844 36.895L13.871 39.607ZM72.4129 39.833L55.0109 41.189L57.1579 26.499L98.7419 26.838V37.46L83.7129 38.929L85.1819 100.062H67.5539L72.4129 39.833ZM148.043 28.194L151.546 98.932L145.331 100.401L137.76 77.801L117.194 79.835L112.448 98.932L107.702 98.367L102.956 26.16L148.043 28.194ZM117.194 66.049L135.726 66.84L129.511 41.076L122.505 41.754L117.194 66.049ZM213.586 28.985L198.105 68.761L209.405 97.576L205.224 99.61L177.652 75.88L171.098 98.593L163.188 98.141L159.798 26.16L213.586 28.985ZM186.24 59.947L195.845 39.833L172.793 41.867L176.183 60.512L186.24 59.947ZM234.299 39.833L216.897 41.189L219.044 26.499L260.628 26.838V37.46L245.599 38.929L247.068 100.062H229.44L234.299 39.833ZM309.929 28.194L313.432 98.932L307.217 100.401L299.646 77.801L279.08 79.835L274.334 98.932L269.588 98.367L264.842 26.16L309.929 28.194ZM279.08 66.049L297.612 66.84L291.397 41.076L284.391 41.754L279.08 66.049ZM387.809 99.949L369.955 57.687L367.13 100.627H360.576L353.457 26.16H372.102L392.103 73.507L400.804 27.516L418.545 26.16L425.099 97.802H416.285L408.262 50.455L399.222 98.48L387.809 99.949ZM478.677 36.782L453.591 38.477L450.879 57.8L478.677 59.834V67.631L453.139 71.021L455.625 88.423L479.581 88.988L480.146 97.576L441.839 100.401L437.545 26.16L480.372 26.951L478.677 36.782ZM532.132 26.612L536.2 100.288L492.356 98.254L489.531 26.273L498.345 26.16L506.142 82.547L519.589 84.92L521.623 26.612H532.132ZM621.912 30.68L620.33 40.511L589.255 42.206L593.888 86.163L620.782 85.711V94.864L583.492 100.401L575.243 26.16L621.912 30.68ZM675.258 26.612L679.326 100.288L635.482 98.254L632.657 26.273L641.471 26.16L649.268 82.547L662.715 84.92L664.749 26.612H675.258ZM726.257 99.949L708.403 57.687L705.578 100.627H699.024L691.905 26.16H710.55L730.551 73.507L739.252 27.516L756.993 26.16L763.547 97.802H754.733L746.71 50.455L737.67 98.48L726.257 99.949ZM815.769 36.669L790.683 38.364L787.971 57.8L815.769 59.834V67.631L790.231 71.021L792.717 88.423L816.673 88.988L817.238 97.576L778.931 100.401L774.637 26.047L817.464 26.838L815.769 36.669ZM776.106 16.894L796.333 0.621998L815.317 17.12L812.944 22.77L796.107 14.747L777.914 20.849L776.106 16.894Z" fill="#502500"/>
</svg>
